<svg xmlns:xlink="http://www.w3.org/1999/xlink" width="20" xmlns="http://www.w3.org/2000/svg" height="20" id="screenshot-8c89db44-3cff-8035-8001-c9a8a6164d30" viewBox="0 0 20 20" style="-webkit-print-color-adjust: exact;" fill="none" version="1.1"><g id="shape-8c89db44-3cff-8035-8001-c9a8a6164d30" rx="0" ry="0"><g id="shape-8c89db44-3cff-8035-8001-c9a8a6164d31" rx="0" ry="0" style="fill: rgb(0, 0, 0);"><g id="shape-8c89db44-3cff-8035-8001-c9a8a6164d33" rx="0" ry="0" style="fill: rgb(0, 0, 0);"><g id="shape-8c89db44-3cff-8035-8001-c9a8a6164d34" rx="0" ry="0" style="fill: rgb(0, 0, 0);"><g id="shape-8c89db44-3cff-8035-8001-c9a8a6164d35"><g id="fills-8c89db44-3cff-8035-8001-c9a8a6164d35"><path rx="0" ry="0" d="M15.987,2.162C13.602,2.929,12,5.032,12,7.396L12,10.09C12.002,10.929,12.728,11.61,13.624,11.612L16.088,11.612L16.088,18.572C16.088,18.809,16.292,19,16.544,19C16.794,18.996,16.996,18.807,17,18.572L17,2.428C16.996,2.193,16.794,2.004,16.544,2C16.491,1.999,16.438,2.008,16.389,2.026ZM13.624,10.757C13.231,10.756,12.913,10.458,12.912,10.09L12.912,7.396C12.914,5.469,14.173,3.739,16.088,3.035L16.088,10.757Z" style="fill: rgb(63, 99, 200); fill-opacity: 1;"/></g></g><g id="shape-8c89db44-3cff-8035-8001-c9a8a6164d36"><g id="fills-8c89db44-3cff-8035-8001-c9a8a6164d36"><path rx="0" ry="0" d="M10.556,2C10.311,2,10.112,2.192,10.112,2.428L10.112,6.688L7.944,6.688L7.944,2.428C7.944,2.192,7.745,2,7.5,2C7.255,2,7.056,2.192,7.056,2.428L7.056,6.688L4.888,6.688L4.888,2.428C4.888,2.192,4.689,2,4.444,2C4.199,2,4,2.192,4,2.428L4,7.972C4.003,9.152,4.996,10.107,6.221,10.111L7.056,10.111L7.056,18.572C7.06,18.807,7.256,18.996,7.5,19C7.745,19,7.944,18.808,7.944,18.572L7.944,10.111L8.779,10.111C10.006,10.111,11,9.153,11,7.972L11,2.428C11,2.192,10.801,2,10.556,2ZZM10.112,7.972C10.112,8.681,9.515,9.255,8.779,9.255L6.221,9.255C5.487,9.25,4.894,8.678,4.888,7.972L4.888,7.544L10.112,7.544Z" style="fill: rgb(63, 99, 200); fill-opacity: 1;"/></g></g></g></g></g></g></svg>