<svg xmlns:xlink="http://www.w3.org/1999/xlink" width="20" xmlns="http://www.w3.org/2000/svg" height="17" id="screenshot-8c89db44-3cff-8035-8001-c9a876d3c82f" viewBox="2289 1418 20 17" style="-webkit-print-color-adjust: exact;" fill="none" version="1.1"><g id="shape-8c89db44-3cff-8035-8001-c9a876d3c82f"><g id="fills-8c89db44-3cff-8035-8001-c9a876d3c82f"><path rx="0" ry="0" d="M2308.794,1431.864L2306.732,1431.864L2306.732,1430.214C2306.732,1430.123,2306.639,1430.049,2306.525,1430.049L2305.288,1430.049C2305.175,1430.049,2305.082,1430.123,2305.082,1430.214L2305.082,1431.864L2303.02,1431.864C2302.906,1431.864,2302.814,1431.938,2302.814,1432.029L2302.814,1433.019C2302.814,1433.11,2302.906,1433.184,2303.02,1433.184L2305.082,1433.184L2305.082,1434.835C2305.082,1434.926,2305.175,1435,2305.288,1435L2306.525,1435C2306.639,1435,2306.732,1434.926,2306.732,1434.835L2306.732,1433.184L2308.794,1433.184C2308.907,1433.184,2309,1433.11,2309,1433.019L2309,1432.029C2309,1431.938,2308.907,1431.864,2308.794,1431.864ZZM2295.429,1426.219C2295.406,1426.04,2295.393,1425.858,2295.393,1425.675C2295.393,1425.347,2295.431,1425.027,2295.503,1424.715C2295.522,1424.641,2295.473,1424.565,2295.387,1424.534C2295.037,1424.408,2294.715,1424.235,2294.436,1424.016C2293.773,1423.501,2293.411,1422.787,2293.439,1422.048C2293.462,1421.386,2293.794,1420.756,2294.374,1420.282C2295.011,1419.76,2295.867,1419.475,2296.777,1419.483C2297.599,1419.49,2298.393,1419.743,2298.994,1420.193C2299.197,1420.346,2299.373,1420.515,2299.519,1420.696C2299.571,1420.76,2299.672,1420.787,2299.759,1420.763C2300.213,1420.637,2300.692,1420.548,2301.185,1420.507C2301.329,1420.494,2301.411,1420.371,2301.347,1420.267C2300.509,1418.941,2298.798,1418.025,2296.818,1418C2293.962,1417.965,2291.58,1419.84,2291.58,1422.126C2291.58,1423.422,2292.325,1424.577,2293.493,1425.334C2292.673,1425.638,2291.918,1426.056,2291.263,1426.58C2289.851,1427.709,2289.052,1429.199,2289,1430.789C2288.999,1430.834,2289.02,1430.877,2289.059,1430.909C2289.097,1430.94,2289.151,1430.958,2289.206,1430.958L2290.652,1430.958C2290.763,1430.958,2290.856,1430.888,2290.859,1430.8C2290.908,1429.603,2291.513,1428.483,2292.578,1427.633C2293.336,1427.026,2294.264,1426.605,2295.277,1426.401C2295.375,1426.378,2295.442,1426.302,2295.429,1426.219ZZM2307.041,1425.675C2307.041,1423.418,2304.775,1421.584,2301.966,1421.549C2299.11,1421.513,2296.73,1423.389,2296.73,1425.675C2296.73,1426.97,2297.478,1428.126,2298.643,1428.883C2297.815,1429.19,2297.061,1429.612,2296.416,1430.129C2295.003,1431.258,2294.204,1432.747,2294.153,1434.336C2294.151,1434.38,2294.172,1434.423,2294.211,1434.455C2294.25,1434.487,2294.303,1434.505,2294.359,1434.505L2295.802,1434.505C2295.913,1434.505,2296.006,1434.435,2296.009,1434.346C2296.058,1433.149,2296.663,1432.029,2297.728,1431.179C2298.839,1430.29,2300.313,1429.801,2301.886,1429.801C2304.731,1429.801,2307.041,1427.954,2307.041,1425.675ZZM2304.218,1427.542C2303.595,1428.041,2302.767,1428.316,2301.886,1428.316C2301.004,1428.316,2300.177,1428.041,2299.553,1427.542C2298.924,1427.041,2298.575,1426.358,2298.586,1425.648C2298.594,1424.971,2298.932,1424.317,2299.522,1423.832C2300.141,1423.325,2300.968,1423.042,2301.852,1423.034C2302.726,1423.028,2303.574,1423.3,2304.198,1423.789C2304.837,1424.29,2305.188,1424.961,2305.188,1425.675C2305.185,1426.38,2304.842,1427.043,2304.218,1427.542ZZ" style="fill: rgb(63, 99, 200); fill-opacity: 1;"/></g></g></svg>