<svg xmlns:xlink="http://www.w3.org/1999/xlink" width="18" xmlns="http://www.w3.org/2000/svg" height="17" id="screenshot-8c89db44-3cff-8035-8001-c9a876d3c82f" viewBox="2290 1418 18 17" style="-webkit-print-color-adjust: exact;" fill="none" version="1.1"><g id="shape-8c89db44-3cff-8035-8001-c9a876d3c82f"><g id="fills-8c89db44-3cff-8035-8001-c9a876d3c82f"><path rx="0" ry="0" d="M2307.814,1431.864L2305.959,1431.864L2305.959,1430.214C2305.959,1430.123,2305.875,1430.049,2305.773,1430.049L2304.659,1430.049C2304.557,1430.049,2304.474,1430.123,2304.474,1430.214L2304.474,1431.864L2302.618,1431.864C2302.516,1431.864,2302.432,1431.938,2302.432,1432.029L2302.432,1433.019C2302.432,1433.11,2302.516,1433.184,2302.618,1433.184L2304.474,1433.184L2304.474,1434.835C2304.474,1434.926,2304.557,1435,2304.659,1435L2305.773,1435C2305.875,1435,2305.959,1434.926,2305.959,1434.835L2305.959,1433.184L2307.814,1433.184C2307.916,1433.184,2308,1433.11,2308,1433.019L2308,1432.029C2308,1431.938,2307.916,1431.864,2307.814,1431.864ZZM2295.786,1426.219C2295.765,1426.04,2295.753,1425.858,2295.753,1425.675C2295.753,1425.347,2295.788,1425.027,2295.853,1424.715C2295.869,1424.641,2295.825,1424.565,2295.749,1424.534C2295.433,1424.408,2295.143,1424.235,2294.893,1424.016C2294.296,1423.501,2293.97,1422.787,2293.995,1422.048C2294.016,1421.386,2294.315,1420.756,2294.837,1420.282C2295.41,1419.76,2296.18,1419.475,2296.999,1419.483C2297.739,1419.49,2298.454,1419.743,2298.994,1420.193C2299.177,1420.346,2299.335,1420.515,2299.467,1420.696C2299.514,1420.76,2299.604,1420.787,2299.683,1420.763C2300.092,1420.637,2300.523,1420.548,2300.966,1420.507C2301.096,1420.494,2301.17,1420.371,2301.112,1420.267C2300.358,1418.941,2298.818,1418.025,2297.036,1418C2294.466,1417.965,2292.322,1419.84,2292.322,1422.126C2292.322,1423.422,2292.993,1424.577,2294.044,1425.334C2293.306,1425.638,2292.626,1426.056,2292.037,1426.58C2290.766,1427.709,2290.046,1429.199,2290,1430.789C2289.999,1430.834,2290.018,1430.877,2290.053,1430.909C2290.088,1430.94,2290.136,1430.958,2290.186,1430.958L2291.487,1430.958C2291.587,1430.958,2291.67,1430.888,2291.673,1430.8C2291.717,1429.603,2292.262,1428.483,2293.22,1427.633C2293.902,1427.026,2294.737,1426.605,2295.649,1426.401C2295.737,1426.378,2295.797,1426.302,2295.786,1426.219ZZM2306.237,1425.675C2306.237,1423.418,2304.198,1421.584,2301.669,1421.549C2299.099,1421.513,2296.957,1423.389,2296.957,1425.675C2296.957,1426.97,2297.63,1428.126,2298.679,1428.883C2297.933,1429.19,2297.255,1429.612,2296.674,1430.129C2295.403,1431.258,2294.684,1432.747,2294.637,1434.336C2294.636,1434.38,2294.655,1434.423,2294.69,1434.455C2294.725,1434.487,2294.773,1434.505,2294.823,1434.505L2296.122,1434.505C2296.222,1434.505,2296.305,1434.435,2296.308,1434.346C2296.352,1433.149,2296.897,1432.029,2297.855,1431.179C2298.855,1430.29,2300.182,1429.801,2301.597,1429.801C2304.158,1429.801,2306.237,1427.954,2306.237,1425.675ZZM2303.697,1427.542C2303.135,1428.041,2302.391,1428.316,2301.597,1428.316C2300.804,1428.316,2300.059,1428.041,2299.498,1427.542C2298.932,1427.041,2298.618,1426.358,2298.628,1425.648C2298.635,1424.971,2298.939,1424.317,2299.47,1423.832C2300.027,1423.325,2300.771,1423.042,2301.567,1423.034C2302.353,1423.028,2303.117,1423.3,2303.678,1423.789C2304.253,1424.29,2304.569,1424.961,2304.569,1425.675C2304.567,1426.38,2304.258,1427.043,2303.697,1427.542ZZ" style="fill: rgb(63, 99, 200); fill-opacity: 1;"/></g></g></svg>